<svg xmlns="http://www.w3.org/2000/svg" width="900" height="560" viewBox="0 0 900 560" font-family="Arial, sans-serif">
  <defs>
    <marker id="arr" markerWidth="10" markerHeight="7" refX="9" refY="3.5" orient="auto">
      <polygon points="0 0,10 3.5,0 7" fill="#444"/>
    </marker>
  </defs>
  <rect width="900" height="560" fill="white"/>
  <text x="450" y="28" text-anchor="middle" font-size="16" font-weight="bold" fill="#222">KidoLearn — Use Case Diagram</text>

  <!-- System boundary -->
  <rect x="140" y="42" width="620" height="500" rx="5" fill="#f9f9f9" stroke="#444" stroke-width="2"/>
  <text x="450" y="62" text-anchor="middle" font-size="13" font-weight="bold" fill="#444">KidoLearn System</text>

  <!-- ── ACTOR: Child User (left) ── -->
  <circle cx="60" cy="175" r="18" fill="none" stroke="#333" stroke-width="1.8"/>
  <line x1="60" y1="193" x2="60" y2="230" stroke="#333" stroke-width="1.8"/>
  <line x1="60" y1="205" x2="38" y2="220" stroke="#333" stroke-width="1.8"/>
  <line x1="60" y1="205" x2="82" y2="220" stroke="#333" stroke-width="1.8"/>
  <line x1="60" y1="230" x2="44" y2="252" stroke="#333" stroke-width="1.8"/>
  <line x1="60" y1="230" x2="76" y2="252" stroke="#333" stroke-width="1.8"/>
  <text x="60" y="266" text-anchor="middle" font-size="11" fill="#333">Child User</text>

  <!-- ── ACTOR: System/Server (right) ── -->
  <circle cx="840" cy="280" r="18" fill="none" stroke="#333" stroke-width="1.8"/>
  <line x1="840" y1="298" x2="840" y2="335" stroke="#333" stroke-width="1.8"/>
  <line x1="840" y1="310" x2="818" y2="325" stroke="#333" stroke-width="1.8"/>
  <line x1="840" y1="310" x2="862" y2="325" stroke="#333" stroke-width="1.8"/>
  <line x1="840" y1="335" x2="824" y2="357" stroke="#333" stroke-width="1.8"/>
  <line x1="840" y1="335" x2="856" y2="357" stroke="#333" stroke-width="1.8"/>
  <text x="840" y="372" text-anchor="middle" font-size="11" fill="#333">System</text>

  <!-- USE CASES - left column -->
  <ellipse cx="290" cy="95" rx="110" ry="24" fill="white" stroke="#0DA2E7" stroke-width="1.8"/>
  <text x="290" y="99" text-anchor="middle" font-size="11" fill="#333">Register Account</text>

  <ellipse cx="290" cy="155" rx="110" ry="24" fill="white" stroke="#0DA2E7" stroke-width="1.8"/>
  <text x="290" y="159" text-anchor="middle" font-size="11" fill="#333">Login with Password</text>

  <ellipse cx="290" cy="215" rx="110" ry="24" fill="white" stroke="#0DA2E7" stroke-width="1.8"/>
  <text x="290" y="219" text-anchor="middle" font-size="11" fill="#333">Login with Face</text>

  <ellipse cx="290" cy="275" rx="110" ry="24" fill="white" stroke="#0DA2E7" stroke-width="1.8"/>
  <text x="290" y="279" text-anchor="middle" font-size="11" fill="#333">Browse Courses</text>

  <ellipse cx="290" cy="335" rx="110" ry="24" fill="white" stroke="#0DA2E7" stroke-width="1.8"/>
  <text x="290" y="339" text-anchor="middle" font-size="11" fill="#333">View Lesson</text>

  <ellipse cx="290" cy="395" rx="110" ry="24" fill="white" stroke="#0DA2E7" stroke-width="1.8"/>
  <text x="290" y="399" text-anchor="middle" font-size="11" fill="#333">Take Quiz</text>

  <ellipse cx="290" cy="455" rx="110" ry="24" fill="white" stroke="#0DA2E7" stroke-width="1.8"/>
  <text x="290" y="459" text-anchor="middle" font-size="11" fill="#333">Track Progress</text>

  <!-- USE CASES - right column -->
  <ellipse cx="570" cy="155" rx="110" ry="24" fill="white" stroke="#4caf50" stroke-width="1.8"/>
  <text x="570" y="159" text-anchor="middle" font-size="11" fill="#333">Validate Credentials</text>

  <ellipse cx="570" cy="215" rx="110" ry="24" fill="white" stroke="#4caf50" stroke-width="1.8"/>
  <text x="570" y="219" text-anchor="middle" font-size="11" fill="#333">Issue JWT Token</text>

  <ellipse cx="570" cy="275" rx="110" ry="24" fill="white" stroke="#4caf50" stroke-width="1.8"/>
  <text x="570" y="279" text-anchor="middle" font-size="11" fill="#333">Generate AI Quiz</text>

  <ellipse cx="570" cy="335" rx="110" ry="24" fill="white" stroke="#4caf50" stroke-width="1.8"/>
  <text x="570" y="339" text-anchor="middle" font-size="11" fill="#333">Evaluate Answers</text>

  <ellipse cx="570" cy="395" rx="110" ry="24" fill="white" stroke="#4caf50" stroke-width="1.8"/>
  <text x="570" y="399" text-anchor="middle" font-size="11" fill="#333">Save Progress to DB</text>

  <ellipse cx="570" cy="455" rx="110" ry="24" fill="white" stroke="#4caf50" stroke-width="1.8"/>
  <text x="570" y="459" text-anchor="middle" font-size="11" fill="#333">Play Gesture Game</text>

  <!-- Child User → Use Cases -->
  <line x1="90" y1="175" x2="180" y2="105" stroke="#444" stroke-width="1.2" marker-end="url(#arr)"/>
  <line x1="90" y1="185" x2="180" y2="163" stroke="#444" stroke-width="1.2" marker-end="url(#arr)"/>
  <line x1="90" y1="195" x2="180" y2="218" stroke="#444" stroke-width="1.2" marker-end="url(#arr)"/>
  <line x1="90" y1="200" x2="180" y2="272" stroke="#444" stroke-width="1.2" marker-end="url(#arr)"/>
  <line x1="90" y1="210" x2="180" y2="330" stroke="#444" stroke-width="1.2" marker-end="url(#arr)"/>
  <line x1="90" y1="220" x2="180" y2="390" stroke="#444" stroke-width="1.2" marker-end="url(#arr)"/>
  <line x1="90" y1="230" x2="180" y2="450" stroke="#444" stroke-width="1.2" marker-end="url(#arr)"/>

  <!-- include arrows (left → right) -->
  <line x1="400" y1="155" x2="460" y2="155" stroke="#444" stroke-width="1.2" stroke-dasharray="5,3" marker-end="url(#arr)"/>
  <text x="430" y="148" text-anchor="middle" font-size="9" fill="#666">«include»</text>

  <line x1="400" y1="215" x2="460" y2="215" stroke="#444" stroke-width="1.2" stroke-dasharray="5,3" marker-end="url(#arr)"/>
  <text x="430" y="208" text-anchor="middle" font-size="9" fill="#666">«include»</text>

  <line x1="400" y1="335" x2="460" y2="275" stroke="#444" stroke-width="1.2" stroke-dasharray="5,3" marker-end="url(#arr)"/>
  <text x="435" y="300" text-anchor="middle" font-size="9" fill="#666">«include»</text>

  <line x1="400" y1="395" x2="460" y2="335" stroke="#444" stroke-width="1.2" stroke-dasharray="5,3" marker-end="url(#arr)"/>
  <text x="435" y="358" text-anchor="middle" font-size="9" fill="#666">«include»</text>

  <line x1="400" y1="455" x2="460" y2="395" stroke="#444" stroke-width="1.2" stroke-dasharray="5,3" marker-end="url(#arr)"/>
  <text x="435" y="418" text-anchor="middle" font-size="9" fill="#666">«include»</text>

  <line x1="400" y1="455" x2="460" y2="455" stroke="#444" stroke-width="1.2" stroke-dasharray="5,3" marker-end="url(#arr)"/>
  <text x="430" y="448" text-anchor="middle" font-size="9" fill="#666">«extend»</text>

  <!-- System → right-column use cases -->
  <line x1="810" y1="290" x2="680" y2="220" stroke="#444" stroke-width="1.2" marker-end="url(#arr)"/>
  <line x1="810" y1="295" x2="680" y2="280" stroke="#444" stroke-width="1.2" marker-end="url(#arr)"/>
  <line x1="810" y1="300" x2="680" y2="340" stroke="#444" stroke-width="1.2" marker-end="url(#arr)"/>
  <line x1="810" y1="305" x2="680" y2="400" stroke="#444" stroke-width="1.2" marker-end="url(#arr)"/>
  <line x1="810" y1="310" x2="680" y2="460" stroke="#444" stroke-width="1.2" marker-end="url(#arr)"/>

</svg>
